<?xml version="1.0" encoding="utf-8"?>
<!-- Generator: Adobe Illustrator 25.0.1, SVG Export Plug-In . SVG Version: 6.00 Build 0)  -->
<svg version="1.0" id="katman_1" xmlns="http://www.w3.org/2000/svg" xmlns:xlink="http://www.w3.org/1999/xlink" x="0px" y="0px"
	 viewBox="0 0 1456 1067.2" style="enable-background:new 0 0 1456 1067.2;" xml:space="preserve">
<style type="text/css">
	.st0{fill:#2AA9D3;}
</style>
<g id="Info">
</g>
<g id="Logo">
	<g>
		<path class="st0" d="M1121.9,442.8c-0.6,41.1-3.4,84.2-13,126.6c-2.9,12.8-9,24-17.7,33.4c-11.3,12.1-25.5,17.7-42,13.6
			c-16.4-4.1-24.7-16.3-28.2-31.9c-4.8-21.3-0.8-42.7,1.4-63.9c3.3-32.2,6.1-64.4,4.7-96.8c-0.7-17-2.8-34.3-15.4-47
			c-16.9-17-40.3-14.9-60.7,4.2c-18.6,17.3-31.1,38.8-41.5,61.8c-21,46.6-35.2,95.6-50.3,144.2c-8.2,26.2-17.4,52-35.9,72.9
			c-64.5,72.6-183.9,64.7-237.3-17.2c-29.8-45.7-55.2-94.1-82.7-141.3c-6-10.2-12.4-20.1-20.6-28.8c-8.9-9.3-18.8-13.6-31.8-10.3
			c-13.7,3.5-18.5,14-20.8,26c-3.4,18.2-1,36.2,2.6,54.2c7.8,39.4,23,76.7,32.6,115.5c3,12,4.9,24.1,4.1,36.5
			c-1,14.2-6.9,25.9-20.3,31.5c-15.3,6.5-30.5,4.9-43.7-5.8c-12.8-10.4-19.8-25.1-25.4-39.9c-28.8-75.4-49.3-152.6-45.1-234.3
			c2.8-53.6,12.3-105.9,37.3-154.1c20.3-39.3,49.3-68.7,95.6-75.6c31.5-4.7,59.5,2.9,83.9,23.7c28.5,24.3,48.4,55.3,68.8,86
			c15.4,23,27.8,48.1,45.9,69.2c17.4,20.4,38.2,35.7,66.5,34.7c31.5-1.1,50.8-20,62.9-47.2c21-47.4,38.2-96.4,60.2-143.5
			c16.9-36.3,41.4-65.8,78.7-81.6c56-23.7,107.2-4.6,137.3,50.2c24.6,44.9,36.6,93.9,43.6,144.3
			C1119.6,381.5,1121.1,411,1121.9,442.8z"/>
		<g>
			<path class="st0" d="M1019.6,811.5c-6.2-2.7-15.6-4.4-27.7-4.4h-1.5c-7.4,0-17.5,0.9-27.2,2.7c-1.6,0.3-2.3,1.1-2.3,3v13.9
				c0,1.7,0.9,2.3,2.9,2c8.5-1.3,17.3-2.2,24.1-2.2h1c9.6,0,17.3,0.9,21.9,4c4.6,3.1,6.9,7.8,6.9,17.9v3c-7-1.5-15.5-2.5-23.2-2.5
				h-2.1c-12.9,0-25,3.1-32.8,10.3c-5.9,5.5-9.8,13.9-9.8,24.6v0.9c0,21.5,14.8,34.7,44.9,34.7h5.4c11.8,0,23.1-3.5,29.8-9.1
				c7.8-6.4,10.8-16,10.8-31.2v-31C1040.7,826.9,1032.4,817.1,1019.6,811.5z M1017.7,878.6c0,8.1-0.3,12.9-3.2,16.3
				c-3.1,3.6-8.7,5.3-16.2,5.3h-3.7c-13.9,0-21.9-5.6-21.9-16.2c0-4.9,1.9-9.2,4.9-11.8c3.5-3,8.7-4.5,17.5-4.5h2
				c6.7,0,14.3,0.7,20.6,2.3L1017.7,878.6L1017.7,878.6z M1114,807.1h-12.4c-17.8,0-31.8,6.2-37.7,19.1c-2.6,5.6-3.4,13.1-3.4,21.1
				v68c0,1.5,0.7,2.1,2.3,2.1h18.5c1.5,0,2.2-0.6,2.2-2.1v-56.9c0-8,0.2-13.9,0.6-17.5c1.1-9.4,6.8-13.9,20.1-13.9h9.9
				c1.6,0,2.3-0.8,2.3-2.4v-15.3C1116.4,807.8,1115.6,807.1,1114,807.1z M669.4,917.4h20.1c1.7,0,2.5-0.6,3.2-1.9
				c13-24.5,32.9-66.3,34.3-104.2c0.1-1.5-0.6-2.2-2.5-2.2h-18.7c-2.2,0-2.8,0.7-2.9,2.6c-0.9,13.8-3.8,29.9-8,44.2
				c-4.4,14.8-10,28.9-15.4,39.4c-5.4-10.5-11-24.6-15.4-39.4c-4.3-14.4-7.2-30.6-8.1-44.5c-0.1-2-1.2-2.4-3.1-2.4H634
				c-2,0-2.6,0.9-2.4,2.9c2.6,37.2,14.2,66,34.3,103.5C666.6,916.9,667.6,917.4,669.4,917.4z M818.5,868.9c5,1.9,9.2,3.4,14.1,5.1
				c10.6,3.8,15.1,6.8,15.1,13.2c0,8.4-7.1,12.8-23.1,12.8H824c-9,0-19.4-1.8-28.5-4.7c-1.9-0.6-2.9,0.1-2.9,2v13.8
				c0,1.7,0.3,2.8,2.2,3.5c8.7,3,20.6,4.7,30.4,4.7h0.7c28.4,0,43.8-12.6,43.8-33.1v-0.3c0-7.9-2.6-15-7.4-19.8
				c-4.7-4.7-11.9-8.3-23.1-12.4c-5.9-2.2-10.5-3.9-14.6-5.4c-9.2-3.4-11.8-6.5-11.8-11.3c0-7.9,7.7-10.9,20.1-10.9h0.9
				c7.1,0,15.8,1,26.3,2.9c1.9,0.4,3-0.1,3-2.1v-14.2c0-1.9-0.5-2.4-2.4-2.8c-6.8-1.4-19.2-3-26.2-3h-1.7c-14.5,0-25.3,2.7-32.4,8.9
				c-5.8,5.1-9.7,12.8-9.7,21.9v0.7c0,8.5,3,15.4,8,20C803.7,863,810,865.7,818.5,868.9z M932.6,917.4c1.6,0,2.5-0.9,2.5-2.3v-15.4
				c0-1.4-0.9-2.3-2.5-2.3h-2.5c-7.4,0-11.9-1.8-14.7-4.7c-3.7-3.9-4.4-10.1-4.4-17.5v-46.9h20.4c1.5,0,2.3-0.6,2.3-2.1v-15
				c0-1.5-0.8-2.1-2.3-2.1H911v-19.4c0-1.5-0.8-2.1-2.3-2.1h-18.5c-1.5,0-2.3,0.6-2.3,2.1v86.8c0,15.1,3,24.7,9.6,31.3
				c6.2,6.2,16,9.6,30.1,9.6L932.6,917.4L932.6,917.4z M458.1,807.1h-5.6c-16.1,0-26.8,4.3-32,10.6h-0.1
				c-5.2-6.3-16.5-10.6-32.6-10.6H382c-18.2,0-33,6.3-39,19.3c-2.6,5.6-3.4,13-3.4,21.1V915c0,1.5,0.9,2.5,2.4,2.5h18.3
				c1.5,0,2.4-1,2.4-2.5v-56.2c0-8,0.2-13.9,0.6-17.5c1.1-9.4,8.1-14,21.4-14h1.5c13.3,0,20.7,4.6,21.7,14c0.4,3.6,0.6,9.5,0.6,17.5
				V915c0,1.5,0.9,2.5,2.4,2.5h18.3c1.5,0,2.4-1.2,2.4-2.7v-56c0-8,0.2-13.9,0.6-17.5c1-9.4,8.4-14,21.7-14h1.5
				c13.3,0,20.3,4.6,21.4,14c0.4,3.6,0.6,9.5,0.6,17.5V915c0,1.5,0.9,2.5,2.4,2.5h18.3c1.5,0,2.4-1.2,2.4-2.7v-67.3
				c0-8.1-0.9-15.5-3.4-21.1C491.2,813.4,476.3,807.1,458.1,807.1z M615.7,893.1c2.2-7.4,3.5-15.8,3.5-29.9c0-14-1.2-22.5-3.5-29.9
				c-5.6-18.8-20.5-26.3-44.6-26.3h-2.9c-24.1,0-38.9,7.5-44.6,26.3c-2.2,7.4-3.5,15.9-3.5,29.9s1.2,22.5,3.5,29.9
				c5.7,18.8,20.5,26.3,44.6,26.3h2.9C595.2,919.4,610.1,911.9,615.7,893.1z M594.9,879c-1.8,17.6-10.6,20.3-24.9,20.3h-0.6
				c-14.2,0-23.1-2.7-24.9-20.3c-0.6-5.3-1-9.7-1-15.8s0.4-10.5,1-15.8c1.8-17.6,10.6-20.3,24.9-20.3h0.6c14.2,0,23.1,2.7,24.9,20.3
				c0.6,5.3,1,9.7,1,15.8C595.9,869.4,595.4,873.7,594.9,879z M766.8,809.2h-18.5c-1.5,0-2.3,0.6-2.3,2.1v104c0,1.5,0.7,2.1,2.3,2.1
				h18.5c1.6,0,2.3-0.6,2.3-2.1v-104C769.1,809.8,768.3,809.2,766.8,809.2z"/>
		</g>
	</g>
</g>
</svg>
